<?xml version="1.0" standalone="no"?>
<!DOCTYPE svg PUBLIC "-//W3C//DTD SVG 20010904//EN"
 "http://www.w3.org/TR/2001/REC-SVG-20010904/DTD/svg10.dtd">
<svg version="1.0" xmlns="http://www.w3.org/2000/svg"
 width="308.000000pt" height="164.000000pt" viewBox="0 0 308.000000 164.000000"
 preserveAspectRatio="xMidYMid meet">

<g transform="translate(0.000000,164.000000) scale(0.100000,-0.100000)"
fill="#000000" stroke="none">
<path d="M1295 1598 c-151 -13 -428 -58 -442 -71 -6 -7 -39 -62 -72 -122 -64
-116 -72 -158 -28 -148 12 3 -9 -14 -47 -38 l-68 -44 -105 -197 c-73 -139
-102 -202 -96 -212 7 -13 32 0 137 70 70 47 129 84 131 82 2 -2 -11 -30 -28
-63 l-32 -60 -206 -80 -206 -80 -102 -280 c-95 -262 -113 -325 -93 -325 5 0
64 32 131 70 683 392 1132 616 1180 591 11 -6 29 -11 41 -11 24 0 22 -16 -10
-80 -25 -48 -49 -68 -90 -72 -33 -3 -36 -6 -58 -67 l-22 -64 57 6 c35 4 81 18
116 36 47 24 58 27 52 13 -22 -54 -22 -54 36 -49 30 3 180 6 334 6 265 1 282
2 302 20 19 18 63 117 63 141 0 5 13 17 30 26 16 10 36 35 45 56 19 48 19 58
-1 58 -12 0 -14 7 -9 30 l7 30 -61 0 c-34 0 -61 4 -61 10 0 6 -28 10 -64 10
-36 0 -68 -4 -71 -10 -4 -6 -64 -10 -146 -10 -134 0 -140 1 -134 19 4 14 0 20
-12 23 -22 4 253 73 362 90 192 30 664 4 866 -47 l26 -6 7 168 c3 92 9 232 12
309 7 160 14 146 -78 159 l-48 6 -6 -40 -6 -40 -22 31 c-41 61 -100 87 -194
88 -52 0 -92 -19 -124 -60 l-23 -29 3 58 4 58 -109 18 c-67 11 -185 20 -314
23 l-207 4 -17 -58 c-10 -33 -20 -78 -23 -102 l-5 -43 89 7 c49 4 87 4 84 2
-3 -3 -58 -29 -122 -58 l-117 -53 -32 -96 c-18 -53 -32 -104 -31 -113 0 -12
-13 -19 -50 -28 -28 -6 -53 -9 -55 -6 -2 2 14 42 36 89 21 47 42 99 46 116 6
29 5 30 -55 52 l-61 22 93 40 c51 21 95 41 97 43 6 5 41 157 41 177 0 16 -15
17 -182 16 -101 -1 -228 -6 -283 -11z m-405 -102 c0 -2 -8 -10 -17 -17 -16
-13 -17 -12 -4 4 13 16 21 21 21 13z m100 -46 c28 0 49 3 47 8 -3 4 11 8 32 9
26 1 31 -1 16 -7 -19 -7 -18 -8 5 -12 14 -2 35 0 47 5 13 6 36 5 60 -1 l38
-11 -35 1 c-19 0 -42 -2 -50 -4 -8 -3 -87 -23 -175 -44 -88 -21 -166 -40 -173
-42 -8 -2 -2 17 16 50 21 37 36 53 51 54 12 1 24 4 28 7 3 4 14 2 24 -3 10 -6
41 -10 69 -10z m303 3 c-7 -2 -21 -2 -30 0 -10 3 -4 5 12 5 17 0 24 -2 18 -5z
m240 -19 c31 4 38 3 24 -5 -9 -6 -21 -8 -26 -4 -5 3 -13 0 -17 -6 -4 -6 -34
-24 -68 -39 -37 -17 -55 -30 -46 -33 119 -40 200 -71 200 -77 0 -12 -60 -140
-65 -140 -3 0 -74 34 -157 76 l-152 76 -120 -52 c-144 -61 -208 -98 -425 -243
-90 -60 -162 -105 -160 -100 2 4 36 67 74 140 l70 132 77 46 c153 91 451 212
539 218 16 1 29 5 29 9 0 4 12 3 26 -3 24 -8 25 -8 14 6 -16 19 3 20 22 1 8
-7 33 -15 56 -17 l41 -4 -22 24 -22 24 33 -17 c21 -11 47 -15 75 -12z m543
-22 c-12 -20 15 -34 75 -38 99 -6 100 -7 161 -49 57 -40 58 -40 52 -80 -3 -22
-10 -44 -14 -49 -8 -8 -56 17 -164 86 -33 21 -65 38 -73 38 -12 0 -106 -40
-340 -146 -29 -13 -53 -20 -53 -16 0 4 9 32 20 62 11 30 20 55 20 56 0 1 28
14 63 29 34 15 90 41 124 56 35 16 69 26 77 23 8 -3 23 -1 33 6 16 9 15 10 -7
5 l-25 -6 25 15 c29 18 33 19 26 8z m181 -8 c-3 -3 -12 -4 -19 -1 -8 3 -5 6 6
6 11 1 17 -2 13 -5z m310 -60 c0 -55 9 -65 65 -71 50 -6 78 12 78 50 0 12 4
28 9 36 7 11 10 8 16 -9 15 -47 29 -50 41 -11 l12 36 0 -35 c1 -56 -20 -102
-57 -127 -38 -26 -58 -28 -133 -12 -92 20 -138 89 -109 163 7 19 8 18 23 -3
l16 -23 17 26 c10 14 18 26 20 26 1 0 2 -21 2 -46z m-112 -43 c0 -65 4 -85 21
-108 30 -40 70 -61 138 -71 80 -13 124 -1 165 44 l34 37 -7 -64 c-4 -35 -8
-65 -9 -65 -1 -1 -27 2 -57 7 -30 4 -122 15 -204 23 -81 8 -150 17 -153 20 -3
2 3 39 13 82 l18 77 -37 31 -38 31 48 16 c26 10 53 18 58 18 6 1 10 -32 10
-78z m435 38 c0 10 3 11 14 2 12 -10 15 -8 20 11 3 13 3 -76 1 -196 -3 -121
-6 -220 -7 -221 -2 -1 -50 6 -108 16 -58 10 -177 23 -265 29 -88 7 -161 13
-163 15 -2 1 2 23 9 48 l11 46 67 -6 c36 -3 131 -13 211 -23 80 -10 145 -18
146 -17 2 3 34 291 34 312 1 18 2 17 15 -5 8 -14 14 -19 15 -11z m-218 5 c3
-3 4 -14 1 -25 -4 -13 -14 -19 -34 -19 -31 0 -44 13 -35 35 5 14 57 21 68 9z
m-562 -111 c0 -3 -7 -30 -17 -59 -14 -46 -20 -53 -47 -57 -17 -3 -32 -3 -34
-2 -2 1 2 24 9 49 9 38 18 50 43 61 36 16 46 17 46 8z m138 -12 c13 -8 11 -27
-14 -113 -5 -16 3 -18 60 -18 72 0 73 -1 60 -69 l-6 -31 -92 0 c-173 -1 -341
-31 -571 -104 -60 -19 -111 -33 -114 -30 -3 2 8 43 24 89 l30 84 47 11 c26 5
66 13 88 16 47 8 50 11 79 90 21 58 25 62 59 68 45 7 92 8 92 1 0 -3 -7 -32
-17 -65 -9 -33 -14 -62 -12 -64 2 -3 35 -2 73 2 l69 7 20 68 20 67 46 0 c25 0
52 -4 59 -9z m-978 -41 l35 -18 -49 -13 c-48 -12 -48 -12 -90 -100 l-41 -88
-74 -25 c-41 -14 -76 -24 -78 -22 -2 2 10 33 27 70 27 61 39 116 25 116 -3 0
-22 -7 -43 -16 -20 -8 -32 -10 -26 -4 13 13 253 119 269 119 6 0 26 -8 45 -19z
m130 -35 c0 -2 -13 -41 -29 -85 -19 -51 -25 -80 -18 -80 7 1 52 9 100 19 59
13 87 15 84 7 -2 -6 -17 -48 -33 -93 -31 -89 -46 -103 -109 -103 -19 0 -38 -6
-42 -13 -4 -7 -62 -35 -128 -61 -190 -77 -466 -221 -944 -493 -101 -57 -185
-102 -188 -99 -4 4 52 165 148 421 l19 50 206 80 207 80 48 100 48 100 93 34
c51 19 98 36 105 39 7 2 -7 -40 -32 -94 -24 -54 -43 -100 -41 -101 1 -2 58 17
126 41 l123 43 44 87 c24 48 49 89 56 92 12 4 134 32 150 33 4 1 7 -1 7 -4z
m905 -15 c3 -5 -1 -10 -9 -10 -9 0 -16 5 -16 10 0 6 4 10 9 10 6 0 13 -4 16
-10z m-800 -65 l40 -18 -60 -13 c-76 -17 -85 -17 -80 -1 23 66 25 68 42 58 10
-5 36 -17 58 -26z m182 -286 c-4 -16 10 -18 147 -21 113 -2 153 0 159 9 11 18
107 17 107 0 0 -10 15 -12 61 -9 l61 5 -7 -32 c-5 -24 -3 -31 9 -31 35 0 7
-74 -36 -96 -15 -8 -28 -21 -28 -28 0 -7 -9 -25 -21 -40 -11 -14 -16 -26 -10
-26 15 0 -7 -50 -31 -72 -17 -15 -48 -17 -265 -17 -135 0 -254 4 -264 9 -12 7
-26 5 -46 -5 -31 -16 -83 -20 -83 -6 0 5 7 28 15 51 8 24 13 45 10 48 -3 3 -5
1 -5 -5 0 -6 -24 -27 -54 -48 -43 -29 -66 -38 -115 -42 l-61 -6 16 46 c13 39
20 46 49 51 47 9 79 38 102 93 40 93 40 93 -6 93 -36 0 -41 3 -41 23 0 12 3
32 6 44 7 26 21 28 207 28 116 1 128 -1 124 -16z"/>
<path d="M1035 1441 c-3 -5 0 -13 6 -17 7 -4 9 -3 5 4 -3 5 0 13 6 15 9 4 10
6 1 6 -6 1 -14 -3 -18 -8z"/>
<path d="M1376 754 c-11 -29 -6 -34 40 -34 45 0 46 0 39 -27 -13 -56 -66 -153
-93 -171 -15 -11 -40 -23 -56 -29 -16 -5 -33 -19 -37 -31 -7 -19 -5 -22 19
-22 41 0 124 43 155 80 36 42 50 70 86 169 l30 81 -89 0 c-71 0 -89 -3 -94
-16z"/>
<path d="M1587 763 c-15 -27 -119 -324 -115 -329 3 -3 21 1 41 9 27 12 38 25
50 58 8 24 33 95 56 157 l40 112 -34 0 c-18 0 -36 -3 -38 -7z"/>
<path d="M2010 740 c0 -5 -15 -10 -34 -10 -25 0 -35 -5 -39 -19 -3 -11 -2 -22
1 -25 3 -3 40 -6 83 -6 67 0 80 3 89 19 14 28 13 31 -15 31 -14 0 -25 5 -25
10 0 6 -13 10 -30 10 -16 0 -30 -4 -30 -10z"/>
<path d="M1806 730 l-118 -5 -29 -76 c-15 -43 -25 -80 -22 -83 4 -3 55 -6 114
-6 100 0 109 2 120 21 9 19 61 162 56 157 -1 -1 -55 -4 -121 -8z m30 -77 c-13
-37 -14 -38 -71 -41 -50 -3 -57 -1 -51 13 3 9 9 28 12 41 6 22 11 24 65 24
l58 0 -13 -37z"/>
<path d="M2100 643 c-18 -49 -35 -94 -38 -100 -3 -9 6 -13 26 -13 27 0 32 5
48 45 11 31 23 45 35 45 10 0 23 9 29 19 14 26 13 31 -6 31 -13 0 -15 7 -10
30 5 28 3 30 -23 30 -26 0 -30 -6 -61 -87z"/>
<path d="M1938 660 c-19 -12 -43 -75 -33 -90 7 -12 124 -13 142 -2 17 10 45
81 38 92 -8 13 -125 12 -147 0z m72 -50 c0 -5 -9 -10 -20 -10 -11 0 -20 5 -20
10 0 6 9 10 20 10 11 0 20 -4 20 -10z"/>
<path d="M1600 551 c0 -5 -3 -16 -6 -25 -4 -11 0 -16 14 -16 27 0 34 24 11 38
-10 7 -19 8 -19 3z"/>
<path d="M1655 521 c-10 -20 -24 -31 -42 -33 -20 -2 -28 -9 -28 -23 0 -19 7
-20 108 -22 59 -1 118 2 132 7 31 12 33 40 4 40 -19 0 -21 4 -15 30 5 28 3 30
-23 30 -23 0 -31 -6 -40 -30 -13 -40 -45 -42 -36 -2 5 24 2 28 -19 30 -19 1
-29 -6 -41 -27z"/>
<path d="M1846 534 c-21 -20 -20 -24 3 -24 10 0 21 9 24 20 6 24 -6 26 -27 4z"/>
<path d="M1890 515 c-5 -14 -13 -37 -16 -50 l-6 -25 104 0 c103 0 128 7 128
37 0 10 -21 13 -80 13 l-80 0 10 25 c9 23 7 25 -20 25 -23 0 -33 -6 -40 -25z"/>
<path d="M1976 525 c-4 -11 2 -15 23 -15 16 0 31 7 35 15 4 11 -2 15 -23 15
-16 0 -31 -7 -35 -15z"/>
<path d="M2292 728 c-16 -46 -35 -99 -42 -119 -18 -51 -9 -69 35 -69 23 0 34
-4 29 -11 -4 -7 -25 -8 -59 -4 l-53 6 -15 -46 c-18 -53 -14 -73 18 -81 12 -3
89 -3 171 -1 82 3 206 5 275 5 163 1 160 -1 230 192 28 80 54 151 56 158 4 9
-12 12 -61 12 -37 0 -66 4 -66 10 0 15 -123 12 -139 -2 -11 -11 -12 -9 -6 10
l6 22 -174 0 -175 0 -30 -82z m353 45 c-4 -18 -1 -23 14 -23 10 0 21 7 25 15
7 20 106 22 106 1 0 -11 14 -13 66 -8 78 6 78 28 1 -181 -41 -113 -55 -140
-74 -148 -32 -12 -230 -12 -237 0 -4 5 -19 3 -36 -6 -23 -11 -60 -14 -165 -11
-151 3 -163 8 -149 60 9 32 11 33 74 38 50 4 66 9 68 22 2 13 -5 17 -35 20
-27 2 -39 8 -41 21 -4 22 55 193 73 210 8 8 61 12 164 12 l152 0 -6 -22z"/>
<path d="M2312 678 c-18 -51 -32 -96 -32 -100 0 -14 256 -9 268 5 8 10 72 173
72 184 0 2 -62 3 -138 3 l-138 0 -32 -92z m218 37 c0 -2 -7 -23 -16 -45 -16
-39 -18 -40 -65 -41 -27 -1 -55 -2 -61 -3 -15 -1 -14 27 1 67 10 25 14 27 76
27 36 0 65 -2 65 -5z"/>
<path d="M2700 740 c0 -5 -15 -10 -34 -10 -25 0 -35 -5 -39 -20 -5 -19 0 -20
83 -20 71 0 89 3 94 16 9 23 8 24 -19 24 -14 0 -25 5 -25 10 0 6 -13 10 -30
10 -16 0 -30 -4 -30 -10z"/>
<path d="M2820 704 c-6 -14 -10 -30 -10 -36 0 -7 -13 -8 -37 -3 -40 8 -131 7
-145 -1 -15 -10 -39 -66 -34 -80 4 -10 24 -14 76 -14 59 0 72 3 82 20 17 26
32 26 25 -1 -5 -17 -1 -20 26 -17 28 3 33 8 59 81 l28 77 -30 0 c-24 0 -33 -6
-40 -26z m-110 -84 c0 -5 -11 -10 -25 -10 -14 0 -25 5 -25 10 0 6 11 10 25 10
14 0 25 -4 25 -10z"/>
<path d="M2555 561 c-3 -6 -26 -11 -49 -11 -35 0 -45 -4 -49 -20 -5 -18 0 -20
49 -20 49 0 54 2 60 25 7 28 0 43 -11 26z m-10 -31 c-8 -12 -65 -13 -65 -2 0
5 16 9 35 10 21 1 33 -3 30 -8z"/>
<path d="M2593 543 c-3 -10 -12 -33 -19 -52 -8 -18 -11 -37 -8 -42 6 -11 194
-12 210 -1 13 8 44 77 44 98 0 11 -23 14 -110 14 -96 0 -111 -2 -117 -17z
m152 -43 c-3 -5 -28 -10 -56 -10 -27 0 -49 5 -49 10 0 6 25 10 56 10 34 0 53
-4 49 -10z"/>
<path d="M2359 520 c-11 -29 -13 -30 -70 -30 -47 0 -60 -4 -68 -19 -6 -10 -7
-21 -4 -25 3 -3 73 -6 155 -6 145 0 149 1 157 23 8 21 6 22 -51 25 -48 2 -59
6 -54 17 3 8 9 22 12 30 5 12 -2 15 -30 15 -32 0 -38 -4 -47 -30z"/>
</g>
</svg>
